<svg width="141" height="40" viewBox="0 0 141 40" fill="none" xmlns="http://www.w3.org/2000/svg">
<path d="M91.3115 11.5007H88.3109V26.065H91.3115V11.5007Z" fill="#121429"/>
<path d="M136.059 11.061C133.748 11.061 132.101 12.2259 131.118 14.1062C130.402 12.1465 128.834 11.061 126.603 11.061C124.505 11.061 123.071 12.0403 122.061 13.7092V11.3785H119.06V25.9428H122.061V18.3957C122.061 15.7474 123.256 13.9206 125.62 13.9206C127.638 13.9206 128.515 15.0597 128.515 17.2308V25.9428H131.542L131.516 18.3957C131.516 15.7474 132.738 13.9206 135.101 13.9206C137.12 13.9206 137.996 15.0597 137.996 17.2308V25.9428H140.998V16.5948C140.998 13.1259 139.139 11.0601 136.058 11.0601L136.059 11.061Z" fill="#121429"/>
<path d="M89.8526 9.91996C90.8793 9.91996 91.7116 9.09011 91.7116 8.06642C91.7116 7.04274 90.8793 6.21289 89.8526 6.21289C88.8258 6.21289 87.9935 7.04274 87.9935 8.06642C87.9935 9.09011 88.8258 9.91996 89.8526 9.91996Z" fill="#121429"/>
<path d="M105.163 20.7595L100.938 11.5007H97.7882L103.551 24.2115L100.356 31.2438H103.572L112.582 11.5007H109.388L105.163 20.7595Z" fill="#121429"/>
<path d="M58.4682 12.8281C57.1674 11.7996 55.524 11.1833 53.7347 11.1833C49.5245 11.1833 46.1133 14.5871 46.1133 18.7848C46.1133 22.9824 49.5245 26.3835 53.7347 26.3835C55.524 26.3835 57.1674 25.7681 58.4682 24.7396V26.0651H61.4697V11.5008H58.4682V12.8281ZM53.7347 23.5239C51.1098 23.5239 48.9824 21.4027 48.9824 18.7857C48.9824 16.1686 51.1098 14.0474 53.7347 14.0474C56.3596 14.0474 58.487 16.1686 58.487 18.7857C58.487 21.4027 56.3596 23.5239 53.7347 23.5239Z" fill="#121429"/>
<path d="M78.2002 11.5007L74.8802 16.2175L71.5602 11.5007H67.9477L73.0739 18.7829L67.9477 26.0659H71.5602L74.8802 21.3491L78.2002 26.0659H81.8119L76.6865 18.7829L81.8119 11.5007H78.2002Z" fill="#121429"/>
<path d="M20.0596 40C31.1382 40 40.1192 31.0457 40.1192 20C40.1192 8.9543 31.1382 0 20.0596 0C8.98098 0 0 8.9543 0 20C0 31.0457 8.98098 40 20.0596 40Z" fill="#121429"/>
<path d="M24.435 25.2387L23.2532 24.4921L20.274 32.0418C20.1989 32.2327 19.9278 32.2327 19.8527 32.0418L16.8735 24.4921L15.6917 25.2387L19.0108 33.609C19.3883 34.5607 20.7384 34.5607 21.1159 33.609L24.435 25.2387Z" fill="white"/>
<path d="M8.79073 28.0607L17.8409 22.3404C17.9062 22.2994 17.9465 22.2272 17.9465 22.1496V21.2603C17.9465 21.1827 17.9071 21.1113 17.8409 21.0694L17.6029 20.9186C17.5287 20.8722 17.4347 20.8722 17.3605 20.9186L10.0701 25.5114C9.86967 25.6381 9.63438 25.4106 9.75337 25.2073L19.8672 7.93762C19.9549 7.78866 20.1705 7.78866 20.2582 7.93762L30.3721 25.2073C30.492 25.4115 30.2558 25.6381 30.0554 25.5114L22.765 20.9186C22.6907 20.8722 22.5968 20.8722 22.5225 20.9186L22.2846 21.0694C22.2193 21.1104 22.179 21.1827 22.179 21.2603V22.1496C22.179 22.2272 22.2184 22.2985 22.2846 22.3404L31.3347 28.0607C32.3358 28.694 33.5158 27.5603 32.9182 26.539L21.0392 6.23572C20.6026 5.48913 19.521 5.48913 19.0835 6.23572L7.20454 26.539C6.60692 27.5603 7.78695 28.694 8.78805 28.0607H8.79073Z" fill="white"/>
<path d="M19.2499 11.5724V17.166L19.9424 17.6022C20.0166 17.6486 20.1106 17.6486 20.1839 17.6022L20.8764 17.166V11.5724L20.2582 10.5172C20.1705 10.3682 19.9549 10.3682 19.8672 10.5172L19.2499 11.5724Z" fill="white"/>
<path d="M23.7296 16.9074L20.1842 19.1409C20.1099 19.1873 20.016 19.1873 19.9426 19.1409L16.3972 16.9074C16.2889 16.8387 16.1458 16.8744 16.0805 16.9841L15.5777 17.8431C15.5159 17.9483 15.5491 18.0821 15.6519 18.1473L19.1446 20.3549C19.2099 20.3959 19.2502 20.4682 19.2502 20.5458V26.9627L19.8532 28.4907C19.9283 28.6816 20.1994 28.6816 20.2745 28.4907L20.8775 26.9627V20.5458C20.8775 20.4682 20.9169 20.3968 20.9831 20.3549L24.4758 18.1473C24.5786 18.0821 24.6117 17.9475 24.55 17.8431L24.0472 16.9841C23.9828 16.8735 23.8379 16.8387 23.7296 16.9074Z" fill="white"/>
</svg>
