<svg width="32" height="32" viewBox="0 0 32 32" fill="none" xmlns="http://www.w3.org/2000/svg">
<circle cx="16" cy="16" r="16" fill="#009393"/>
<path d="M10.4221 15.8485C10.9763 16.473 13.2367 16.9414 15.9424 16.9415C18.648 16.9414 20.9084 16.473 21.4613 15.8485C20.9931 15.3185 19.2956 14.9013 17.1401 14.7871V16.1083C16.7539 16.128 16.3523 16.1385 15.9417 16.1385C15.5311 16.1385 15.1296 16.1293 14.7433 16.1083V14.7871C12.5891 14.9013 10.8917 15.3185 10.4221 15.8485Z" fill="white"/>
<path fill-rule="evenodd" clip-rule="evenodd" d="M23.1962 8.2617L26.8875 14.7431V14.7444C27.0786 15.0803 27.0222 15.5041 26.7489 15.777L16.5873 25.9202C16.2575 26.2497 15.7277 26.2497 15.3992 25.9202L5.2504 15.7901C4.97197 15.5106 4.91938 15.0751 5.12466 14.7365L9.06999 8.24071C9.22396 7.9888 9.49725 7.83398 9.79107 7.83398H22.4636C22.7665 7.83398 23.0447 7.99668 23.1962 8.2617ZM17.1413 12.5468V13.8076H17.14C19.6752 13.9428 21.5781 14.4964 21.5921 15.1603V16.5432C21.5781 17.2071 19.6752 17.7595 17.14 17.8946V20.9896H14.7433V17.8946C12.2081 17.7595 10.3066 17.2071 10.2925 16.5432V15.1603C10.3066 14.4964 12.2081 13.9428 14.7433 13.8076V12.5468H11.1342V10.7283H20.7504V12.5468H17.1413Z" fill="white"/>
</svg>
